<svg xmlns="http://www.w3.org/2000/svg" xmlns:xlink="http://www.w3.org/1999/xlink" width="200" zoomAndPan="magnify" viewBox="0 0 150 141.000003" height="188" preserveAspectRatio="xMidYMid meet" version="1.0"><defs><clipPath id="302ace7903"><path d="M 0.527344 0 L 108 0 L 108 140 L 0.527344 140 Z M 0.527344 0 " clip-rule="nonzero"/></clipPath></defs><g clip-path="url(#302ace7903)"><path fill="#fff0be" d="M 101.375 139.363281 L 7.035156 139.363281 C 6.605469 139.363281 6.183594 139.320312 5.765625 139.238281 C 5.347656 139.152344 4.941406 139.03125 4.546875 138.867188 C 4.152344 138.703125 3.777344 138.503906 3.421875 138.265625 C 3.066406 138.027344 2.738281 137.757812 2.4375 137.457031 C 2.132812 137.152344 1.863281 136.824219 1.628906 136.46875 C 1.390625 136.113281 1.1875 135.742188 1.027344 135.347656 C 0.863281 134.953125 0.738281 134.542969 0.65625 134.125 C 0.570312 133.707031 0.527344 133.285156 0.527344 132.855469 L 0.527344 6.933594 C 0.527344 6.507812 0.570312 6.085938 0.65625 5.667969 C 0.738281 5.246094 0.863281 4.839844 1.027344 4.445312 C 1.1875 4.050781 1.390625 3.675781 1.628906 3.320312 C 1.863281 2.96875 2.132812 2.636719 2.4375 2.335938 C 2.738281 2.035156 3.066406 1.765625 3.421875 1.527344 C 3.777344 1.289062 4.152344 1.089844 4.546875 0.925781 C 4.941406 0.761719 5.347656 0.640625 5.765625 0.554688 C 6.183594 0.472656 6.605469 0.429688 7.035156 0.429688 L 101.375 0.429688 C 101.800781 0.429688 102.226562 0.472656 102.644531 0.554688 C 103.0625 0.640625 103.46875 0.761719 103.863281 0.925781 C 104.257812 1.089844 104.632812 1.289062 104.988281 1.527344 C 105.34375 1.765625 105.671875 2.035156 105.972656 2.335938 C 106.277344 2.640625 106.546875 2.96875 106.78125 3.324219 C 107.019531 3.675781 107.21875 4.050781 107.382812 4.445312 C 107.546875 4.839844 107.671875 5.246094 107.753906 5.667969 C 107.839844 6.085938 107.878906 6.507812 107.878906 6.933594 L 107.878906 88.601562 C 107.878906 89.027344 107.730469 89.390625 107.425781 89.691406 L 89.738281 107.382812 L 96.691406 114.34375 L 105.246094 105.785156 C 105.46875 105.566406 105.734375 105.425781 106.039062 105.363281 C 106.34375 105.300781 106.644531 105.332031 106.933594 105.453125 C 107.21875 105.570312 107.453125 105.761719 107.625 106.019531 C 107.796875 106.28125 107.886719 106.566406 107.886719 106.878906 L 107.886719 132.855469 C 107.882812 133.285156 107.84375 133.707031 107.757812 134.125 C 107.675781 134.546875 107.550781 134.953125 107.386719 135.347656 C 107.222656 135.742188 107.023438 136.117188 106.785156 136.472656 C 106.546875 136.828125 106.277344 137.15625 105.976562 137.457031 C 105.675781 137.757812 105.34375 138.027344 104.992188 138.265625 C 104.636719 138.503906 104.261719 138.703125 103.867188 138.867188 C 103.472656 139.03125 103.0625 139.15625 102.644531 139.238281 C 102.226562 139.320312 101.804688 139.363281 101.375 139.363281 Z M 7.035156 3.515625 C 6.582031 3.515625 6.144531 3.601562 5.726562 3.777344 C 5.308594 3.949219 4.941406 4.195312 4.621094 4.515625 C 4.300781 4.835938 4.050781 5.207031 3.878906 5.625 C 3.707031 6.042969 3.617188 6.480469 3.617188 6.933594 L 3.617188 132.855469 C 3.617188 133.308594 3.707031 133.742188 3.878906 134.160156 C 4.050781 134.578125 4.300781 134.949219 4.621094 135.269531 C 4.941406 135.589844 5.308594 135.835938 5.726562 136.007812 C 6.144531 136.183594 6.582031 136.269531 7.035156 136.269531 L 101.375 136.269531 C 101.828125 136.269531 102.265625 136.183594 102.683594 136.007812 C 103.101562 135.835938 103.46875 135.589844 103.789062 135.269531 C 104.109375 134.949219 104.355469 134.578125 104.53125 134.160156 C 104.703125 133.742188 104.789062 133.308594 104.789062 132.855469 L 104.789062 110.605469 L 97.777344 117.621094 C 97.476562 117.921875 97.113281 118.074219 96.6875 118.074219 C 96.257812 118.074219 95.894531 117.921875 95.59375 117.621094 L 86.460938 108.476562 C 86.316406 108.328125 86.203125 108.164062 86.125 107.972656 C 86.046875 107.785156 86.007812 107.585938 86.007812 107.382812 C 86.007812 107.179688 86.046875 106.980469 86.125 106.792969 C 86.203125 106.601562 86.316406 106.4375 86.460938 106.292969 L 104.789062 87.960938 L 104.789062 6.933594 C 104.789062 6.480469 104.703125 6.042969 104.53125 5.625 C 104.355469 5.207031 104.109375 4.835938 103.789062 4.515625 C 103.46875 4.195312 103.101562 3.949219 102.683594 3.777344 C 102.265625 3.601562 101.828125 3.515625 101.375 3.515625 Z M 106.335938 88.601562 Z M 106.335938 88.601562 " fill-opacity="1" fill-rule="nonzero"/></g><path fill="#fff0be" d="M 19.320312 25.671875 C 18.894531 25.671875 18.53125 25.519531 18.226562 25.21875 L 15.476562 22.460938 C 15.324219 22.316406 15.210938 22.148438 15.128906 21.960938 C 15.046875 21.769531 15.003906 21.570312 15.003906 21.363281 C 15 21.15625 15.039062 20.957031 15.117188 20.765625 C 15.195312 20.574219 15.308594 20.402344 15.457031 20.257812 C 15.601562 20.109375 15.773438 20 15.964844 19.921875 C 16.15625 19.839844 16.355469 19.804688 16.5625 19.804688 C 16.769531 19.808594 16.96875 19.847656 17.160156 19.929688 C 17.347656 20.011719 17.515625 20.128906 17.660156 20.277344 L 19.320312 21.9375 L 23.550781 17.710938 C 23.695312 17.570312 23.863281 17.460938 24.050781 17.386719 C 24.238281 17.3125 24.433594 17.273438 24.636719 17.277344 C 24.839844 17.277344 25.035156 17.320312 25.21875 17.398438 C 25.40625 17.476562 25.570312 17.585938 25.714844 17.730469 C 25.859375 17.871094 25.96875 18.039062 26.046875 18.222656 C 26.125 18.410156 26.167969 18.605469 26.167969 18.808594 C 26.167969 19.011719 26.132812 19.207031 26.058594 19.394531 C 25.984375 19.582031 25.875 19.75 25.734375 19.894531 L 20.414062 25.21875 C 20.113281 25.519531 19.746094 25.671875 19.320312 25.671875 Z M 19.320312 25.671875 " fill-opacity="1" fill-rule="nonzero"/><path fill="#fff0be" d="M 27.402344 31.136719 L 13.816406 31.136719 C 13.433594 31.136719 13.066406 31.0625 12.710938 30.914062 C 12.359375 30.769531 12.046875 30.5625 11.777344 30.289062 C 11.507812 30.019531 11.296875 29.707031 11.152344 29.355469 C 11.003906 29.003906 10.929688 28.632812 10.929688 28.253906 L 10.929688 14.675781 C 10.933594 14.292969 11.007812 13.925781 11.152344 13.574219 C 11.300781 13.222656 11.507812 12.910156 11.777344 12.640625 C 12.050781 12.371094 12.359375 12.164062 12.714844 12.019531 C 13.066406 11.875 13.433594 11.800781 13.816406 11.800781 L 27.414062 11.800781 C 27.792969 11.800781 28.160156 11.875 28.515625 12.019531 C 28.867188 12.167969 29.179688 12.375 29.449219 12.644531 C 29.71875 12.914062 29.925781 13.226562 30.074219 13.578125 C 30.21875 13.933594 30.292969 14.300781 30.292969 14.683594 L 30.292969 28.257812 C 30.292969 28.640625 30.21875 29.007812 30.070312 29.363281 C 29.921875 29.714844 29.714844 30.027344 29.441406 30.296875 C 29.171875 30.566406 28.859375 30.773438 28.503906 30.917969 C 28.152344 31.0625 27.785156 31.136719 27.402344 31.136719 Z M 14.019531 28.046875 L 27.191406 28.046875 L 27.191406 14.890625 L 14.019531 14.890625 Z M 14.019531 28.046875 " fill-opacity="1" fill-rule="nonzero"/><path fill="#fff0be" d="M 95.933594 18.925781 L 39.183594 18.925781 C 38.980469 18.925781 38.785156 18.886719 38.59375 18.808594 C 38.40625 18.730469 38.238281 18.617188 38.09375 18.472656 C 37.949219 18.328125 37.835938 18.160156 37.757812 17.972656 C 37.679688 17.78125 37.640625 17.585938 37.640625 17.378906 C 37.640625 17.175781 37.679688 16.976562 37.757812 16.789062 C 37.835938 16.597656 37.949219 16.433594 38.09375 16.285156 C 38.238281 16.140625 38.40625 16.03125 38.59375 15.953125 C 38.785156 15.875 38.980469 15.835938 39.183594 15.835938 L 95.933594 15.835938 C 96.140625 15.835938 96.335938 15.875 96.527344 15.953125 C 96.714844 16.03125 96.882812 16.140625 97.027344 16.285156 C 97.171875 16.433594 97.285156 16.597656 97.363281 16.789062 C 97.441406 16.976562 97.480469 17.175781 97.480469 17.378906 C 97.480469 17.585938 97.441406 17.78125 97.363281 17.972656 C 97.285156 18.160156 97.171875 18.328125 97.027344 18.472656 C 96.882812 18.617188 96.714844 18.730469 96.527344 18.808594 C 96.335938 18.886719 96.140625 18.925781 95.933594 18.925781 Z M 95.933594 18.925781 " fill-opacity="1" fill-rule="nonzero"/><path fill="#fff0be" d="M 95.933594 27.097656 L 39.183594 27.097656 C 38.980469 27.097656 38.785156 27.058594 38.59375 26.980469 C 38.40625 26.902344 38.238281 26.789062 38.09375 26.644531 C 37.949219 26.5 37.835938 26.332031 37.757812 26.144531 C 37.679688 25.953125 37.640625 25.757812 37.640625 25.550781 C 37.640625 25.347656 37.679688 25.148438 37.757812 24.960938 C 37.835938 24.769531 37.949219 24.605469 38.09375 24.457031 C 38.238281 24.3125 38.40625 24.203125 38.59375 24.125 C 38.785156 24.046875 38.980469 24.007812 39.183594 24.007812 L 95.933594 24.007812 C 96.140625 24.007812 96.335938 24.046875 96.527344 24.125 C 96.714844 24.203125 96.882812 24.3125 97.027344 24.457031 C 97.171875 24.605469 97.285156 24.769531 97.363281 24.960938 C 97.441406 25.148438 97.480469 25.347656 97.480469 25.550781 C 97.480469 25.757812 97.441406 25.953125 97.363281 26.144531 C 97.285156 26.332031 97.171875 26.5 97.027344 26.644531 C 96.882812 26.789062 96.714844 26.902344 96.527344 26.980469 C 96.335938 27.058594 96.140625 27.097656 95.933594 27.097656 Z M 95.933594 27.097656 " fill-opacity="1" fill-rule="nonzero"/><path fill="#fff0be" d="M 19.320312 57.226562 C 18.894531 57.226562 18.53125 57.074219 18.226562 56.773438 L 15.476562 54.019531 C 15.324219 53.875 15.210938 53.707031 15.128906 53.519531 C 15.046875 53.328125 15.003906 53.128906 15.003906 52.921875 C 15 52.714844 15.039062 52.515625 15.117188 52.324219 C 15.195312 52.132812 15.308594 51.960938 15.457031 51.816406 C 15.601562 51.667969 15.773438 51.554688 15.964844 51.476562 C 16.15625 51.398438 16.355469 51.359375 16.5625 51.363281 C 16.769531 51.363281 16.96875 51.40625 17.160156 51.488281 C 17.347656 51.570312 17.515625 51.683594 17.660156 51.835938 L 19.320312 53.496094 L 23.550781 49.261719 C 23.695312 49.117188 23.863281 49.003906 24.050781 48.925781 C 24.242188 48.847656 24.4375 48.808594 24.640625 48.808594 C 24.847656 48.808594 25.042969 48.847656 25.234375 48.925781 C 25.421875 49.007812 25.589844 49.117188 25.734375 49.261719 C 25.878906 49.40625 25.992188 49.574219 26.070312 49.765625 C 26.148438 49.953125 26.1875 50.152344 26.1875 50.355469 C 26.1875 50.558594 26.148438 50.757812 26.070312 50.945312 C 25.992188 51.136719 25.878906 51.304688 25.734375 51.449219 L 20.414062 56.769531 C 20.113281 57.074219 19.746094 57.222656 19.320312 57.226562 Z M 19.320312 57.226562 " fill-opacity="1" fill-rule="nonzero"/><path fill="#fff0be" d="M 27.402344 62.6875 L 13.816406 62.6875 C 13.433594 62.6875 13.066406 62.613281 12.710938 62.46875 C 12.359375 62.320312 12.046875 62.113281 11.777344 61.84375 C 11.507812 61.574219 11.296875 61.261719 11.152344 60.910156 C 11.003906 60.554688 10.929688 60.1875 10.929688 59.804688 L 10.929688 46.230469 C 10.929688 45.847656 11.003906 45.480469 11.152344 45.125 C 11.296875 44.773438 11.507812 44.460938 11.777344 44.191406 C 12.046875 43.921875 12.359375 43.710938 12.710938 43.566406 C 13.066406 43.417969 13.433594 43.347656 13.816406 43.347656 L 27.414062 43.347656 C 27.792969 43.347656 28.160156 43.421875 28.515625 43.566406 C 28.867188 43.714844 29.179688 43.921875 29.449219 44.191406 C 29.71875 44.460938 29.925781 44.773438 30.074219 45.125 C 30.21875 45.480469 30.292969 45.847656 30.292969 46.230469 L 30.292969 59.804688 C 30.292969 60.1875 30.21875 60.554688 30.074219 60.910156 C 29.925781 61.261719 29.714844 61.574219 29.445312 61.847656 C 29.171875 62.117188 28.859375 62.324219 28.507812 62.46875 C 28.152344 62.617188 27.785156 62.6875 27.402344 62.6875 Z M 14.019531 59.597656 L 27.191406 59.597656 L 27.191406 46.4375 L 14.019531 46.4375 Z M 14.019531 59.597656 " fill-opacity="1" fill-rule="nonzero"/><path fill="#fff0be" d="M 95.933594 50.476562 L 39.183594 50.476562 C 38.980469 50.476562 38.785156 50.4375 38.59375 50.359375 C 38.40625 50.28125 38.238281 50.171875 38.09375 50.023438 C 37.949219 49.878906 37.835938 49.714844 37.757812 49.523438 C 37.679688 49.335938 37.640625 49.136719 37.640625 48.933594 C 37.640625 48.726562 37.679688 48.53125 37.757812 48.339844 C 37.835938 48.152344 37.949219 47.984375 38.09375 47.839844 C 38.238281 47.695312 38.40625 47.582031 38.59375 47.503906 C 38.785156 47.425781 38.980469 47.386719 39.183594 47.386719 L 95.933594 47.386719 C 96.140625 47.386719 96.335938 47.425781 96.527344 47.503906 C 96.714844 47.582031 96.882812 47.695312 97.027344 47.839844 C 97.171875 47.984375 97.285156 48.152344 97.363281 48.339844 C 97.441406 48.53125 97.480469 48.726562 97.480469 48.933594 C 97.480469 49.136719 97.441406 49.335938 97.363281 49.523438 C 97.285156 49.714844 97.171875 49.878906 97.027344 50.023438 C 96.882812 50.171875 96.714844 50.28125 96.527344 50.359375 C 96.335938 50.4375 96.140625 50.476562 95.933594 50.476562 Z M 95.933594 50.476562 " fill-opacity="1" fill-rule="nonzero"/><path fill="#fff0be" d="M 95.933594 58.648438 L 39.183594 58.648438 C 38.980469 58.648438 38.785156 58.605469 38.59375 58.527344 C 38.40625 58.449219 38.238281 58.339844 38.09375 58.195312 C 37.949219 58.050781 37.835938 57.882812 37.757812 57.691406 C 37.679688 57.503906 37.640625 57.304688 37.640625 57.101562 C 37.640625 56.898438 37.679688 56.699219 37.757812 56.511719 C 37.835938 56.320312 37.949219 56.152344 38.09375 56.007812 C 38.238281 55.863281 38.40625 55.753906 38.59375 55.675781 C 38.785156 55.59375 38.980469 55.554688 39.183594 55.554688 L 95.933594 55.554688 C 96.140625 55.554688 96.335938 55.59375 96.527344 55.675781 C 96.714844 55.753906 96.882812 55.863281 97.027344 56.007812 C 97.171875 56.152344 97.285156 56.320312 97.363281 56.511719 C 97.441406 56.699219 97.480469 56.898438 97.480469 57.101562 C 97.480469 57.304688 97.441406 57.503906 97.363281 57.691406 C 97.285156 57.882812 97.171875 58.050781 97.027344 58.195312 C 96.882812 58.339844 96.714844 58.449219 96.527344 58.527344 C 96.335938 58.605469 96.140625 58.648438 95.933594 58.648438 Z M 95.933594 58.648438 " fill-opacity="1" fill-rule="nonzero"/><path fill="#fff0be" d="M 19.320312 88.777344 C 18.894531 88.777344 18.53125 88.625 18.226562 88.324219 L 15.476562 85.570312 C 15.324219 85.425781 15.210938 85.257812 15.128906 85.070312 C 15.046875 84.878906 15.003906 84.679688 15.003906 84.472656 C 15 84.265625 15.039062 84.066406 15.117188 83.875 C 15.195312 83.683594 15.308594 83.511719 15.457031 83.367188 C 15.601562 83.21875 15.773438 83.109375 15.964844 83.03125 C 16.15625 82.949219 16.355469 82.914062 16.5625 82.914062 C 16.769531 82.917969 16.96875 82.957031 17.160156 83.039062 C 17.347656 83.121094 17.515625 83.238281 17.660156 83.386719 L 19.320312 85.046875 L 23.550781 80.816406 C 23.695312 80.675781 23.863281 80.566406 24.050781 80.492188 C 24.238281 80.417969 24.433594 80.378906 24.636719 80.382812 C 24.839844 80.382812 25.035156 80.421875 25.21875 80.5 C 25.40625 80.578125 25.570312 80.691406 25.714844 80.832031 C 25.859375 80.976562 25.96875 81.140625 26.046875 81.328125 C 26.125 81.515625 26.167969 81.710938 26.167969 81.914062 C 26.167969 82.117188 26.132812 82.3125 26.058594 82.5 C 25.984375 82.6875 25.875 82.855469 25.734375 83 L 20.414062 88.324219 C 20.113281 88.625 19.746094 88.777344 19.320312 88.777344 Z M 19.320312 88.777344 " fill-opacity="1" fill-rule="nonzero"/><path fill="#fff0be" d="M 27.402344 94.238281 L 13.816406 94.238281 C 13.433594 94.238281 13.066406 94.167969 12.710938 94.019531 C 12.359375 93.875 12.046875 93.664062 11.777344 93.394531 C 11.507812 93.125 11.296875 92.8125 11.152344 92.460938 C 11.003906 92.109375 10.933594 91.742188 10.929688 91.359375 L 10.929688 77.78125 C 10.929688 77.398438 11.003906 77.03125 11.152344 76.679688 C 11.296875 76.324219 11.507812 76.015625 11.777344 75.742188 C 12.046875 75.472656 12.359375 75.265625 12.710938 75.117188 C 13.066406 74.972656 13.433594 74.898438 13.816406 74.898438 L 27.414062 74.898438 C 27.792969 74.898438 28.160156 74.972656 28.515625 75.121094 C 28.867188 75.265625 29.179688 75.476562 29.449219 75.746094 C 29.71875 76.015625 29.925781 76.328125 30.074219 76.679688 C 30.21875 77.03125 30.292969 77.398438 30.292969 77.78125 L 30.292969 91.359375 C 30.292969 91.742188 30.21875 92.109375 30.070312 92.464844 C 29.925781 92.816406 29.714844 93.128906 29.445312 93.398438 C 29.171875 93.667969 28.859375 93.875 28.507812 94.023438 C 28.152344 94.167969 27.785156 94.242188 27.402344 94.238281 Z M 14.019531 91.148438 L 27.191406 91.148438 L 27.191406 77.988281 L 14.019531 77.988281 Z M 14.019531 91.148438 " fill-opacity="1" fill-rule="nonzero"/><path fill="#fff0be" d="M 95.933594 82.03125 L 39.183594 82.03125 C 38.980469 82.03125 38.785156 81.992188 38.59375 81.910156 C 38.40625 81.832031 38.238281 81.722656 38.09375 81.578125 C 37.949219 81.433594 37.835938 81.265625 37.757812 81.074219 C 37.679688 80.886719 37.640625 80.6875 37.640625 80.484375 C 37.640625 80.28125 37.679688 80.082031 37.757812 79.894531 C 37.835938 79.703125 37.949219 79.535156 38.09375 79.390625 C 38.238281 79.246094 38.40625 79.136719 38.59375 79.058594 C 38.785156 78.980469 38.980469 78.9375 39.183594 78.9375 L 95.933594 78.9375 C 96.140625 78.9375 96.335938 78.980469 96.527344 79.058594 C 96.714844 79.136719 96.882812 79.246094 97.027344 79.390625 C 97.171875 79.535156 97.285156 79.703125 97.363281 79.894531 C 97.441406 80.082031 97.480469 80.28125 97.480469 80.484375 C 97.480469 80.6875 97.441406 80.886719 97.363281 81.074219 C 97.285156 81.265625 97.171875 81.433594 97.027344 81.578125 C 96.882812 81.722656 96.714844 81.832031 96.527344 81.910156 C 96.335938 81.992188 96.140625 82.03125 95.933594 82.03125 Z M 95.933594 82.03125 " fill-opacity="1" fill-rule="nonzero"/><path fill="#fff0be" d="M 95.933594 90.199219 L 39.183594 90.199219 C 38.980469 90.199219 38.785156 90.160156 38.59375 90.082031 C 38.40625 90.003906 38.238281 89.890625 38.09375 89.746094 C 37.949219 89.601562 37.835938 89.433594 37.757812 89.246094 C 37.679688 89.058594 37.640625 88.859375 37.640625 88.65625 C 37.640625 88.449219 37.679688 88.253906 37.757812 88.0625 C 37.835938 87.875 37.949219 87.707031 38.09375 87.5625 C 38.238281 87.417969 38.40625 87.304688 38.59375 87.226562 C 38.785156 87.148438 38.980469 87.109375 39.183594 87.109375 L 95.933594 87.109375 C 96.140625 87.109375 96.335938 87.148438 96.527344 87.226562 C 96.714844 87.304688 96.882812 87.417969 97.027344 87.5625 C 97.171875 87.707031 97.285156 87.875 97.363281 88.0625 C 97.441406 88.253906 97.480469 88.449219 97.480469 88.65625 C 97.480469 88.859375 97.441406 89.058594 97.363281 89.246094 C 97.285156 89.433594 97.171875 89.601562 97.027344 89.746094 C 96.882812 89.890625 96.714844 90.003906 96.527344 90.082031 C 96.335938 90.160156 96.140625 90.199219 95.933594 90.199219 Z M 95.933594 90.199219 " fill-opacity="1" fill-rule="nonzero"/><path fill="#fff0be" d="M 19.320312 120.328125 C 18.894531 120.328125 18.53125 120.179688 18.226562 119.878906 L 15.476562 117.125 C 15.324219 116.980469 15.210938 116.8125 15.128906 116.621094 C 15.046875 116.433594 15.003906 116.234375 15.003906 116.027344 C 15 115.820312 15.039062 115.621094 15.117188 115.425781 C 15.195312 115.234375 15.308594 115.066406 15.457031 114.921875 C 15.601562 114.773438 15.773438 114.660156 15.964844 114.582031 C 16.15625 114.503906 16.355469 114.464844 16.5625 114.46875 C 16.769531 114.46875 16.96875 114.511719 17.160156 114.59375 C 17.347656 114.675781 17.515625 114.789062 17.660156 114.9375 L 19.320312 116.601562 L 23.550781 112.367188 C 23.695312 112.234375 23.863281 112.132812 24.046875 112.0625 C 24.234375 111.996094 24.425781 111.960938 24.625 111.964844 C 24.824219 111.972656 25.011719 112.011719 25.195312 112.089844 C 25.378906 112.167969 25.539062 112.277344 25.679688 112.417969 C 25.820312 112.558594 25.929688 112.71875 26.007812 112.898438 C 26.085938 113.082031 26.128906 113.273438 26.132812 113.46875 C 26.140625 113.667969 26.105469 113.859375 26.039062 114.046875 C 25.96875 114.234375 25.867188 114.398438 25.734375 114.546875 L 20.414062 119.878906 C 20.113281 120.179688 19.746094 120.328125 19.320312 120.328125 Z M 19.320312 120.328125 " fill-opacity="1" fill-rule="nonzero"/><path fill="#fff0be" d="M 27.402344 125.792969 L 13.816406 125.792969 C 13.433594 125.792969 13.066406 125.71875 12.710938 125.574219 C 12.359375 125.425781 12.046875 125.21875 11.777344 124.949219 C 11.507812 124.679688 11.296875 124.367188 11.152344 124.011719 C 11.003906 123.660156 10.929688 123.292969 10.929688 122.910156 L 10.929688 109.335938 C 10.929688 108.953125 11.003906 108.585938 11.152344 108.230469 C 11.296875 107.878906 11.507812 107.566406 11.777344 107.296875 C 12.046875 107.027344 12.359375 106.820312 12.710938 106.671875 C 13.066406 106.527344 13.433594 106.453125 13.816406 106.453125 L 27.414062 106.453125 C 27.792969 106.453125 28.160156 106.527344 28.515625 106.671875 C 28.867188 106.820312 29.179688 107.027344 29.449219 107.296875 C 29.71875 107.570312 29.925781 107.878906 30.074219 108.234375 C 30.21875 108.585938 30.292969 108.953125 30.292969 109.335938 L 30.292969 122.910156 C 30.292969 123.292969 30.21875 123.660156 30.074219 124.015625 C 29.925781 124.367188 29.714844 124.679688 29.445312 124.953125 C 29.175781 125.222656 28.859375 125.429688 28.507812 125.574219 C 28.152344 125.722656 27.785156 125.792969 27.402344 125.792969 Z M 14.019531 122.703125 L 27.191406 122.703125 L 27.191406 109.542969 L 14.019531 109.542969 Z M 14.019531 122.703125 " fill-opacity="1" fill-rule="nonzero"/><path fill="#fff0be" d="M 78.234375 113.582031 L 39.183594 113.582031 C 38.980469 113.582031 38.785156 113.542969 38.59375 113.464844 C 38.40625 113.386719 38.238281 113.273438 38.09375 113.128906 C 37.949219 112.984375 37.835938 112.816406 37.757812 112.628906 C 37.679688 112.441406 37.640625 112.242188 37.640625 112.039062 C 37.640625 111.832031 37.679688 111.636719 37.757812 111.445312 C 37.835938 111.257812 37.949219 111.089844 38.09375 110.945312 C 38.238281 110.800781 38.40625 110.6875 38.59375 110.609375 C 38.785156 110.53125 38.980469 110.492188 39.183594 110.492188 L 78.234375 110.492188 C 78.4375 110.492188 78.636719 110.53125 78.824219 110.609375 C 79.015625 110.6875 79.179688 110.800781 79.328125 110.945312 C 79.472656 111.089844 79.582031 111.257812 79.660156 111.445312 C 79.738281 111.636719 79.777344 111.832031 79.777344 112.039062 C 79.777344 112.242188 79.738281 112.441406 79.660156 112.628906 C 79.582031 112.816406 79.472656 112.984375 79.328125 113.128906 C 79.179688 113.273438 79.015625 113.386719 78.824219 113.464844 C 78.636719 113.542969 78.4375 113.582031 78.234375 113.582031 Z M 78.234375 113.582031 " fill-opacity="1" fill-rule="nonzero"/><path fill="#fff0be" d="M 74.359375 121.75 L 39.183594 121.75 C 38.980469 121.75 38.785156 121.710938 38.59375 121.632812 C 38.40625 121.554688 38.238281 121.445312 38.09375 121.300781 C 37.949219 121.152344 37.835938 120.988281 37.757812 120.796875 C 37.679688 120.609375 37.640625 120.410156 37.640625 120.207031 C 37.640625 120 37.679688 119.804688 37.757812 119.613281 C 37.835938 119.425781 37.949219 119.257812 38.09375 119.113281 C 38.238281 118.96875 38.40625 118.855469 38.59375 118.777344 C 38.785156 118.699219 38.980469 118.660156 39.183594 118.660156 L 74.359375 118.660156 C 74.5625 118.660156 74.761719 118.699219 74.949219 118.777344 C 75.140625 118.855469 75.304688 118.96875 75.453125 119.113281 C 75.597656 119.257812 75.707031 119.425781 75.785156 119.613281 C 75.863281 119.804688 75.902344 120 75.902344 120.207031 C 75.902344 120.410156 75.863281 120.609375 75.785156 120.796875 C 75.707031 120.988281 75.597656 121.152344 75.453125 121.300781 C 75.304688 121.445312 75.140625 121.554688 74.949219 121.632812 C 74.761719 121.710938 74.5625 121.75 74.359375 121.75 Z M 74.359375 121.75 " fill-opacity="1" fill-rule="nonzero"/><path fill="#fff0be" d="M 96.6875 118.074219 C 96.257812 118.074219 95.894531 117.921875 95.59375 117.621094 L 86.460938 108.476562 C 86.316406 108.328125 86.203125 108.164062 86.125 107.972656 C 86.046875 107.785156 86.007812 107.585938 86.007812 107.382812 C 86.007812 107.179688 86.046875 106.980469 86.125 106.792969 C 86.203125 106.601562 86.316406 106.4375 86.460938 106.292969 L 135.1875 57.5625 C 135.9375 56.808594 136.804688 56.230469 137.785156 55.824219 C 138.765625 55.417969 139.789062 55.214844 140.851562 55.214844 L 140.863281 55.214844 C 141.65625 55.21875 142.429688 55.335938 143.183594 55.566406 C 143.941406 55.796875 144.648438 56.132812 145.304688 56.574219 C 145.960938 57.011719 146.539062 57.539062 147.039062 58.148438 C 147.539062 58.761719 147.941406 59.433594 148.242188 60.164062 C 148.542969 60.894531 148.734375 61.652344 148.8125 62.441406 C 148.886719 63.226562 148.847656 64.007812 148.695312 64.785156 C 148.539062 65.558594 148.277344 66.296875 147.902344 66.992188 C 147.53125 67.6875 147.0625 68.316406 146.503906 68.875 L 97.777344 117.621094 C 97.476562 117.921875 97.113281 118.074219 96.6875 118.074219 Z M 89.734375 107.382812 L 96.6875 114.34375 L 144.320312 66.695312 C 144.664062 66.351562 144.949219 65.96875 145.179688 65.539062 C 145.40625 65.113281 145.570312 64.660156 145.664062 64.183594 C 145.757812 63.707031 145.785156 63.230469 145.734375 62.746094 C 145.6875 62.261719 145.574219 61.796875 145.386719 61.347656 C 145.203125 60.902344 144.957031 60.488281 144.648438 60.113281 C 144.34375 59.738281 143.988281 59.414062 143.585938 59.144531 C 143.179688 58.875 142.746094 58.667969 142.285156 58.527344 C 141.820312 58.382812 141.34375 58.3125 140.859375 58.3125 C 140.207031 58.308594 139.578125 58.433594 138.976562 58.679688 C 138.371094 58.929688 137.839844 59.285156 137.378906 59.75 Z M 89.734375 107.382812 " fill-opacity="1" fill-rule="nonzero"/><path fill="#fff0be" d="M 142.363281 72.394531 C 141.9375 72.394531 141.574219 72.246094 141.273438 71.941406 L 132.132812 62.804688 C 131.988281 62.660156 131.875 62.492188 131.796875 62.304688 C 131.71875 62.113281 131.679688 61.917969 131.679688 61.710938 C 131.679688 61.507812 131.71875 61.308594 131.796875 61.121094 C 131.875 60.929688 131.988281 60.765625 132.132812 60.621094 L 135.191406 57.558594 C 135.5625 57.1875 135.96875 56.855469 136.40625 56.566406 C 136.84375 56.273438 137.304688 56.027344 137.789062 55.824219 C 138.277344 55.625 138.777344 55.472656 139.292969 55.367188 C 139.808594 55.265625 140.328125 55.214844 140.855469 55.214844 C 141.378906 55.214844 141.898438 55.265625 142.414062 55.367188 C 142.929688 55.472656 143.433594 55.621094 143.917969 55.824219 C 144.402344 56.023438 144.863281 56.273438 145.300781 56.5625 C 145.738281 56.855469 146.144531 57.1875 146.515625 57.558594 C 146.886719 57.929688 147.21875 58.335938 147.511719 58.773438 C 147.804688 59.210938 148.050781 59.671875 148.25 60.15625 C 148.453125 60.644531 148.605469 61.144531 148.707031 61.660156 C 148.808594 62.175781 148.859375 62.695312 148.859375 63.222656 C 148.859375 63.746094 148.808594 64.265625 148.707031 64.78125 C 148.605469 65.296875 148.453125 65.800781 148.25 66.285156 C 148.050781 66.769531 147.804688 67.230469 147.511719 67.667969 C 147.21875 68.105469 146.886719 68.511719 146.515625 68.882812 L 143.457031 71.941406 C 143.15625 72.246094 142.792969 72.394531 142.363281 72.394531 Z M 135.410156 61.707031 L 142.363281 68.660156 L 144.332031 66.691406 C 144.558594 66.464844 144.761719 66.214844 144.9375 65.945312 C 145.117188 65.679688 145.265625 65.394531 145.390625 65.097656 C 145.511719 64.800781 145.605469 64.492188 145.667969 64.175781 C 145.726562 63.859375 145.757812 63.542969 145.757812 63.21875 C 145.757812 62.898438 145.726562 62.578125 145.664062 62.261719 C 145.597656 61.945312 145.507812 61.640625 145.382812 61.34375 C 145.257812 61.046875 145.109375 60.761719 144.929688 60.496094 C 144.75 60.226562 144.546875 59.980469 144.320312 59.75 C 144.089844 59.523438 143.84375 59.320312 143.574219 59.140625 C 143.308594 58.960938 143.023438 58.8125 142.726562 58.6875 C 142.429688 58.5625 142.125 58.472656 141.808594 58.40625 C 141.492188 58.34375 141.171875 58.3125 140.851562 58.3125 C 140.527344 58.3125 140.210938 58.34375 139.894531 58.402344 C 139.578125 58.464844 139.269531 58.558594 138.972656 58.679688 C 138.675781 58.804688 138.390625 58.953125 138.125 59.132812 C 137.855469 59.308594 137.605469 59.511719 137.378906 59.738281 Z M 135.410156 61.707031 " fill-opacity="1" fill-rule="nonzero"/><path fill="#fff0be" d="M 83.527344 122.089844 C 83.285156 122.089844 83.050781 122.035156 82.832031 121.925781 C 82.613281 121.8125 82.433594 121.660156 82.289062 121.464844 C 82.140625 121.265625 82.046875 121.046875 82.007812 120.808594 C 81.964844 120.566406 81.980469 120.328125 82.050781 120.09375 L 86.070312 106.933594 C 86.109375 106.808594 86.164062 106.6875 86.234375 106.574219 C 86.300781 106.460938 86.386719 106.355469 86.484375 106.265625 C 86.578125 106.171875 86.6875 106.097656 86.804688 106.03125 C 86.917969 105.96875 87.042969 105.917969 87.171875 105.886719 C 87.300781 105.855469 87.433594 105.839844 87.566406 105.839844 C 87.699219 105.84375 87.832031 105.863281 87.957031 105.898438 C 88.085938 105.933594 88.207031 105.984375 88.324219 106.050781 C 88.4375 106.117188 88.542969 106.199219 88.636719 106.292969 L 97.777344 115.433594 C 97.871094 115.527344 97.949219 115.632812 98.019531 115.746094 C 98.085938 115.863281 98.136719 115.984375 98.171875 116.113281 C 98.207031 116.238281 98.226562 116.371094 98.226562 116.503906 C 98.230469 116.636719 98.214844 116.769531 98.183594 116.898438 C 98.148438 117.027344 98.101562 117.152344 98.035156 117.265625 C 97.972656 117.382812 97.894531 117.492188 97.804688 117.585938 C 97.710938 117.683594 97.609375 117.769531 97.496094 117.835938 C 97.382812 117.90625 97.261719 117.960938 97.132812 118 L 83.976562 122.019531 C 83.832031 122.0625 83.679688 122.089844 83.527344 122.089844 Z M 88.273438 110.296875 L 85.855469 118.21875 L 93.777344 115.796875 Z M 88.273438 110.296875 " fill-opacity="1" fill-rule="nonzero"/></svg>